<!DOCTYPE svg PUBLIC "-//W3C//DTD SVG 1.1//EN" "http://www.w3.org/Graphics/SVG/1.1/DTD/svg11.dtd">
<!-- Uploaded to: SVG Repo, www.svgrepo.com, Transformed by: SVG Repo Mixer Tools -->
<svg height="120px" width="120px" version="1.1" id="Capa_1" xmlns="http://www.w3.org/2000/svg" xmlns:xlink="http://www.w3.org/1999/xlink" viewBox="0 0 512.001 512.001" xml:space="preserve" fill="#000000" stroke="#000000">
<g id="SVGRepo_bgCarrier" stroke-width="0"/>
<g id="SVGRepo_tracerCarrier" stroke-linecap="round" stroke-linejoin="round"/>
<g id="SVGRepo_iconCarrier"> <g> <path style="fill:#CCF7F5;" d="M94.768,159.782c3.136,5.073,8.563,7.863,14.119,7.863c2.975,0,5.987-0.801,8.704-2.481 c7.789-4.816,10.2-15.034,5.382-22.823c-3.616-5.847-1.863-14.053,1.454-26.873c3.564-13.774,7.998-30.916-1.293-46.593 c-4.668-7.876-14.836-10.479-22.719-5.809c-7.878,4.669-10.479,14.841-5.809,22.719c2.26,3.812-0.051,12.74-2.284,21.376 C88.367,122.449,83.444,141.472,94.768,159.782z"/> <path style="fill:#CCF7F5;" d="M147.855,159.781c3.136,5.073,8.564,7.864,14.12,7.864c2.975,0,5.987-0.801,8.703-2.48 c7.79-4.815,10.2-15.035,5.385-22.823c-3.616-5.848-1.864-14.054,1.453-26.875c3.564-13.773,7.998-30.915-1.292-46.592 c-4.667-7.876-14.841-10.481-22.719-5.811c-7.879,4.669-10.48,14.841-5.811,22.719c2.261,3.813-0.05,12.742-2.284,21.377 C141.457,122.449,136.535,141.472,147.855,159.781z"/> </g> <path style="fill:#06ABA4;" d="M495.418,390.389H163.49l-7.687,25.756c-0.762,2.574-1.754,5.042-2.947,7.408h342.564 c9.158,0,16.582-7.424,16.582-16.582C512,397.813,504.576,390.389,495.418,390.389z"/> <path style="fill:#4CD6D5;" d="M257.146,390.389h-93.658l-7.687,25.756c-0.761,2.574-1.754,5.043-2.947,7.408h104.292V390.389z"/> <path style="fill:#F4F4F4;" d="M165.07,274.961h18.512c5.973,0,11.193-3.169,14.112-7.906c1.557-2.526,2.47-5.491,2.47-8.676 c0-9.158-7.424-16.582-16.582-16.582H165.07c-9.158,0-16.582,7.424-16.582,16.582c0,3.382,1.017,6.521,2.754,9.143 C154.212,272.004,159.293,274.961,165.07,274.961z"/> <path style="fill:#E0E0E0;" d="M236.578,274.961h18.512c5.973,0,11.193-3.169,14.112-7.906c1.556-2.526,2.47-5.491,2.47-8.676 c0-9.158-7.424-16.582-16.582-16.582h-18.512c-9.158,0-16.582,7.424-16.582,16.582c0,3.185,0.913,6.15,2.47,8.676 C225.385,271.792,230.605,274.961,236.578,274.961z"/> <path style="fill:#F4F4F4;" d="M256.553,241.872c-0.483-0.042-0.968-0.074-1.463-0.074h-18.512c-9.158,0-16.582,7.424-16.582,16.582 c0,3.185,0.913,6.15,2.47,8.676c2.92,4.737,8.138,7.906,14.112,7.906h18.512c0.494,0,0.979-0.03,1.463-0.072V241.872z"/> <g> <path style="fill:#FF8546;" d="M94.768,159.782c3.136,5.073,8.563,7.863,14.119,7.863c2.975,0,5.987-0.801,8.704-2.481 c7.789-4.816,10.2-15.034,5.382-22.823c-3.616-5.847-1.863-14.053,1.454-26.873c3.564-13.774,7.998-30.916-1.293-46.593 c-4.668-7.876-14.836-10.479-22.719-5.809c-7.878,4.669-10.479,14.841-5.809,22.719c2.26,3.812-0.051,12.74-2.284,21.376 C88.367,122.449,83.444,141.472,94.768,159.782z"/> <path style="fill:#FF8546;" d="M147.855,159.781c3.136,5.073,8.564,7.864,14.12,7.864c2.975,0,5.987-0.801,8.703-2.48 c7.79-4.815,10.2-15.035,5.385-22.823c-3.616-5.848-1.864-14.054,1.453-26.875c3.564-13.773,7.998-30.915-1.292-46.592 c-4.667-7.876-14.841-10.481-22.719-5.811c-7.879,4.669-10.48,14.841-5.811,22.719c2.261,3.813-0.05,12.742-2.284,21.377 C141.457,122.449,136.535,141.472,147.855,159.781z"/> </g> <path style="fill:#4CD6D5;" d="M16.582,390.389C7.424,390.389,0,397.813,0,406.971s7.424,16.582,16.582,16.582h20.575l28.335-33.164 H16.582z"/> <g> <path style="fill:#F0A479;" d="M448.332,178.793c0-40.386-32.739-73.125-73.125-73.125h-23.673c-0.562,0-1.121,0.02-1.676,0.05 c-5.767-0.371-11.677,1.459-16.355,5.579l-54.79,48.178l-68.324,21.217c-11.899,3.703-18.539,16.349-14.835,28.243 c3.703,11.897,16.346,18.539,28.246,14.835l72.733-17.158c3.156-0.983,35.744-24.385,35.744-24.385v80.211h116.056v-83.646H448.332 z"/> <path style="fill:#F0A479;" d="M326.8,89.91c10.493-10.301,12.132-27.004,3.211-39.236l-9.552-13.099 c-9.808-13.447-28.658-16.398-42.107-6.591l-13.097,9.553c-13.447,9.807-16.398,28.658-6.591,42.106l9.552,13.099 c8.921,12.232,25.326,15.775,38.34,8.932c2.897-2.114,6.243-4.553,10.124-7.384C320.559,94.461,323.903,92.022,326.8,89.91z"/> </g> <path style="fill:#F5CDB3;" d="M66.732,354.822c14.548-2.139,25.714-14.668,25.714-29.809v-16.212 c0-16.644-13.492-30.136-30.137-30.136H46.1c-16.644,0-30.136,13.492-30.136,30.136v16.212c0,15.139,11.167,27.669,25.713,29.809 c3.587,0,7.727-0.001,12.53-0.001C59.008,354.822,63.146,354.822,66.732,354.822z"/> <path style="fill:#F0A479;" d="M457.177,284.547H154.481c-15.869,0-29.48,9.668-35.266,23.435c-1.047,1.684-1.907,3.518-2.496,5.51 l-24.055,80.592l-47.416,55.497c-8.099,9.468-6.989,23.707,2.478,31.806c9.467,8.101,23.707,6.991,31.807-2.476l49.468-57.903 c0.381-0.444,0.72-0.909,1.06-1.373c2.022-2.349,3.603-5.138,4.54-8.304l15.105-50.609c1.565,0.195,3.156,0.306,4.773,0.306h302.695 c21.12,0,38.242-17.121,38.242-38.24C495.418,301.668,478.297,284.547,457.177,284.547z"/> <g> <path style="fill:#F5CDB3;" d="M257.146,166.172l-46.757,14.52c-11.899,3.703-18.539,16.349-14.835,28.243 c3.703,11.897,16.346,18.539,28.246,14.835l33.346-7.866V166.172L257.146,166.172z"/> <path style="fill:#F5CDB3;" d="M257.146,284.547H154.481c-15.869,0-29.48,9.668-35.266,23.435 c-1.047,1.685-1.907,3.518-2.496,5.511l-24.055,80.592l-47.416,55.497c-8.099,9.468-6.989,23.707,2.478,31.806 c9.467,8.101,23.707,6.991,31.807-2.476l49.468-57.903c0.381-0.446,0.72-0.909,1.06-1.373c2.022-2.349,3.603-5.139,4.539-8.304 l15.105-50.609c1.565,0.195,3.156,0.306,4.773,0.306h102.665v-76.482H257.146z"/> </g> </g>
</svg>